<svg xmlns="http://www.w3.org/2000/svg" viewBox="0 0 378.3 428.18"><defs><style>.cls-1{fill:#b1bfc6;}.cls-2{fill:#f8f9fa;}</style></defs><g id="Слой_2" data-name="Слой 2"><g id="Слой_1-2" data-name="Слой 1"><path class="cls-1" d="M216.9.08q57.43,0,114.89,0c18.85,0,36.52,10.91,42.32,26,8.11,21.1,4.36,41.26-10.48,55.05-5.28,4.9-11.48,9-18.62,9.84-7.93.87-9.33,4.68-9.3,11.77q.35,83.07.06,166.15c0,19.26-11,34.18-28.83,38.38-7.29,1.73-15.05,2-22.59,2.08-40.44.19-80.88.39-121.31-.08-13.37-.15-27.22-.25-37.89-11-6.54-6.6-10.36-14.48-10.55-23.45-.47-22.81-.18-45.63-.26-68.45,0-3.35,1.37-5.83,3.65-8.16,2.9-2.95,6.34-3.3,9.85-2.11s3.76,4.4,3.75,7.68c-.05,20.2-.1,40.41,0,60.61.1,18,7.16,25.15,25,25.18q67.44.12,134.87,0c18.2,0,26.8-7.55,26.91-25.6.38-65.36.15-130.73.28-196.1,0-4.15-1.52-5.41-5.42-5.25-6.64.27-15-2.2-19.47,1s-.88,12.06-1,18.41c-.35,22.82-.17,45.64-.11,68.46a21.57,21.57,0,0,1-2,9.63c-2,4.14-5.68,5.1-9.45,5a8.58,8.58,0,0,1-8.44-6.46,27.28,27.28,0,0,1-1.14-8.41q0-25.66,0-51.34c0-2.72.78-6.14-3.79-6s-3.53,3.65-3.54,6.26c-.08,18.06,0,36.13-.09,54.19,0,7.31-4.28,12.15-10.18,11.95-5.66-.19-9.63-4.87-9.64-11.78-.06-27.81-.45-55.63.21-83.43.23-9.62-5.51-7-10.5-7.43-6.9-.66-5.6,4.08-5.36,7.93,2.47,38.93,1.56,77.92.64,116.83-.54,23,.48,46,.45,69,0,15-4,19-19.08,19-10.22,0-20.46.2-30.68-.14-10.64-.36-12.86-2.84-12.88-13.42-.06-22.58.21-45.16-.14-67.74-.15-9.89,3.23-18.06,9.41-25.38,9.94-11.79,10.77-21,1.45-33.23a50.82,50.82,0,0,1-10.85-34.43c.46-10.68-.05-21.4.26-32.08.14-4.45-.79-6.54-5.76-6.35-8.79.32-17.6.12-26.4.07-3,0-4.3.31-4.17,4.34.55,16.14.29,32.31.44,48.47a14.2,14.2,0,0,1-3.27,9.22c-2.58,3.18-6.32,4.11-10.29,3.12s-3.64-4.4-3.63-7.51c0-6.65-.32-13.33.1-20,.39-6.05-2-7.91-7.83-7.62-15.14.77-28.9-2.87-39.1-14.9C54.35,62.38,52.36,44.77,60.12,26.54,67.53,9.12,81.82.36,100.58.19,139.35-.16,178.13.08,216.9.08ZM85,55.6A10.33,10.33,0,0,0,95.87,45.05a10.62,10.62,0,1,0-21.24.1A10.84,10.84,0,0,0,85,55.6Z"/><path class="cls-1" d="M40.2,265.25c3-26.93.73-54,1.63-81.09.38-11.58,6-20.13,17.24-24.64,27.31-11,54.66-21.86,82.58-31.2,15-5,26.55-.74,32.74,11.45,6.3,12.41,2.36,25.39-10.09,32.13-12.79,6.92-26.69,11.2-40.21,16.36-2.89,1.1-5.78,2.16-8.7,3.18-9.09,3.18-12.66,9.55-12.49,19.14.39,21.39-.23,42.8.32,64.19.4,15.6,5.28,29.44,20.22,37.46,7.7,4.13,16.14,5.64,24.71,5.73,21.65.22,43.3.09,64.94.09,3.56,0,7.42-.58,9.31,3.52,2,4.37-1.49,6.6-4,8.9C200.57,346.55,183,362.83,166,379.75c-10,9.92-20.65,9.66-30.71-.31q-40-39.68-79.65-79.76C46.33,290.26,38,280.08,40.2,265.25Z"/><path class="cls-1" d="M27.53,296.76c7.47-.78,13.53,2.15,18.86,6.9,28.22,25.16,53.24,53.51,80,80.18,9.52,9.51,9.3,23.24.76,33.63-9.15,11.14-22.46,13.78-34.33,7a46.81,46.81,0,0,1-10.11-7.76C58.47,392.55,34.12,368.52,10,344.23c-13.89-14-13.24-29.08,1.24-42C16,298.07,21.31,296,27.53,296.76Z"/><path class="cls-2" d="M85,55.6A10.84,10.84,0,0,1,74.63,45.15a10.62,10.62,0,1,1,21.24-.1A10.33,10.33,0,0,1,85,55.6Z"/></g></g></svg>