<svg xmlns="http://www.w3.org/2000/svg" viewBox="0 0 278.82 371.77"><defs><style>.cls-1{fill:#b1bfc6;}.cls-2{fill:none;stroke:#f4f3f4;stroke-miterlimit:10;stroke-width:14px;}.cls-3{fill:#343434;}</style></defs><g id="Слой_2" data-name="Слой 2"><g id="Слой_1-2" data-name="Слой 1"><path class="cls-1" d="M0,0H278.82V371.77l-23.23-23.24-23.24,23.24-23.23-23.24-23.24,23.24-23.23-23.24-23.24,23.24-23.23-23.24L92.94,371.77,69.71,348.53,46.47,371.77,23.24,348.53,0,371.77Z"/><line class="cls-2" x1="45.66" y1="64.28" x2="191.4" y2="64.28"/><line class="cls-2" x1="45.66" y1="105.81" x2="239.22" y2="105.81"/><line class="cls-2" x1="45.66" y1="148.26" x2="239.22" y2="148.26"/><line class="cls-2" x1="45.66" y1="188.11" x2="239.22" y2="188.11"/><line class="cls-2" x1="45.66" y1="274.01" x2="239.22" y2="274.01"/><line class="cls-2" x1="45.66" y1="227.96" x2="239.22" y2="227.96"/><path class="cls-3" d="M181,329.92h-26.6q-.59,0-.54-.54V294.8c0-.59.05-1.19,0-1.79,0-.41.15-.56.52-.58a15.87,15.87,0,0,0,2.67,0,16.75,16.75,0,0,0,2.65,0,17,17,0,0,0,2.67,0,16.75,16.75,0,0,0,2.65,0,17,17,0,0,0,2.67,0,16.75,16.75,0,0,0,2.65,0,17,17,0,0,0,2.67,0,16.75,16.75,0,0,0,2.65,0c.29,0,.57,0,.86,0,4.65,0,9.3,0,13.95,0,.69,0,.83.2.83.85q0,16.41,0,32.82c0,1.09,0,2.17.05,3.25,0,.37-.17.54-.58.52-.6,0-1.2,0-1.79,0h-8Zm-19.58-24.47a18,18,0,0,0,0,2.65,17,17,0,0,0,0,2.67,18,18,0,0,0,0,2.65,17,17,0,0,0,0,2.67,18,18,0,0,0,0,2.65c0,1.08,0,2.16,0,3.24,0,.31.12.44.43.43l3.24-.05a16.75,16.75,0,0,0,2.65,0,17.13,17.13,0,0,0,2.68,0,16.62,16.62,0,0,0,2.64,0,17.13,17.13,0,0,0,2.68,0,16.62,16.62,0,0,0,2.64,0,17,17,0,0,0,2.67,0,16.87,16.87,0,0,0,2.66,0c.28-.14.14-.4.14-.59,0-1.84,0-3.68,0-5.52,0-5.23,0-10.46,0-15.69,0-.53-.17-.63-.64-.6-.68,0-1.37,0-2.06,0H181c-1.73-.07-3.46-.05-5.19,0h-.13c-1.73-.07-3.46-.05-5.19,0h-.13c-1.73-.07-3.46-.05-5.19,0H165l-3.37,0c-.11,0-.22,0-.25.15a18.17,18.17,0,0,0,0,2.66A17,17,0,0,0,161.38,305.45Z"/><path class="cls-3" d="M153.82,276.18v-5.32c.09-.34-.16-.9.54-.85h5.32a4.17,4.17,0,0,0,.79,0c.66-.1,1,.13.91.82a17,17,0,0,0,0,2.67,18.17,18.17,0,0,0,0,2.66c-.13.41.17,1-.16,1.24s-.89.06-1.35.1l-.2,0h-5.32c-.35,0-.56-.1-.51-.52A5.93,5.93,0,0,0,153.82,276.18Z"/><path class="cls-3" d="M188.94,225.1c.59,0,1.19.05,1.79,0,.41,0,.56.14.58.51a17.13,17.13,0,0,0,0,2.68,16.75,16.75,0,0,0,0,2.65,17,17,0,0,0,0,2.67,16.75,16.75,0,0,0,0,2.65,17,17,0,0,0,0,2.67,16.75,16.75,0,0,0,0,2.65,17,17,0,0,0,0,2.67,16.75,16.75,0,0,0,0,2.65,17,17,0,0,0,0,2.67,16.75,16.75,0,0,0,0,2.65,17,17,0,0,0,0,2.67,16.75,16.75,0,0,0,0,2.65,17,17,0,0,0,0,2.67c0,.61-.05,1.22,0,1.83,0,.37-.12.5-.49.49-.61,0-1.22,0-1.83,0a17,17,0,0,0-2.67,0,16.75,16.75,0,0,0-2.65,0,17.13,17.13,0,0,0-2.68,0,16.75,16.75,0,0,0-2.65,0c-.15,0-.31,0-.46,0h-10.2c-.88,0-1.76,0-2.65,0a16.75,16.75,0,0,0-2.65,0,17,17,0,0,0-2.67,0,16.75,16.75,0,0,0-2.65,0,17,17,0,0,0-2.67,0c-.37,0-.54-.16-.52-.58,0-.59,0-1.19,0-1.79V225.64q0-.57.54-.54h34.58Zm-27.56,8.51a17,17,0,0,0,0,2.67,18,18,0,0,0,0,2.65,17,17,0,0,0,0,2.67,18,18,0,0,0,0,2.65,17,17,0,0,0,0,2.67,18,18,0,0,0,0,2.65c0,1.69,0,3.37,0,5.05,0,.3.08.45.41.44l3.26,0h2.66a23.6,23.6,0,0,0,2.66,0H173a23.6,23.6,0,0,0,2.66,0h2.66a23.6,23.6,0,0,0,2.66,0h2.66c.09,0,.14,0,.12-.13v-2.66a19.68,19.68,0,0,0,0-2.66v-2.66a19.68,19.68,0,0,0,0-2.66V241.6a19.68,19.68,0,0,0,0-2.66v-2.66c0-1.08,0-2.17,0-3.25,0-.33-.15-.42-.45-.42l-5,.06a16.75,16.75,0,0,0-2.65,0,15.87,15.87,0,0,0-2.67,0,16.75,16.75,0,0,0-2.65,0,15.87,15.87,0,0,0-2.67,0,16.75,16.75,0,0,0-2.65,0,15.87,15.87,0,0,0-2.67,0C161.29,232.56,161.27,232.57,161.38,233.61Z"/><path class="cls-3" d="M210.22,329.92h-2.66a5.93,5.93,0,0,0-.84,0c-.42.05-.53-.16-.52-.51v-5.32a1.36,1.36,0,0,0,0-.2c0-.44-.13-1,.06-1.29s.86-.06,1.28-.22a16.87,16.87,0,0,0,2.66,0,17,17,0,0,0,2.67,0,16.75,16.75,0,0,0,2.65,0,17,17,0,0,0,2.67,0,16.75,16.75,0,0,0,2.65,0,17,17,0,0,0,2.67,0,16.62,16.62,0,0,0,2.64,0c.52,0,1,0,1.57,0,1,0,1,0,.91-1V315a24.87,24.87,0,0,1,2.86-.12h2.66l.72,0c1.23,0,1.23,0,1.3,1.18v13.29c0,.36-.1.55-.53.52s-1,0-1.49,0H210.22Z"/><path class="cls-3" d="M244.8,329.92a3.64,3.64,0,0,0-.66,0c-.42.06-.55-.14-.55-.52v-5.32c0-.13,0-.26,0-.39,0-1.19,0-1.19,1.18-1.31a16.87,16.87,0,0,0,2.66,0,16.87,16.87,0,0,0,2.66,0,1.87,1.87,0,0,0,.94,0l0,0a16.76,16.76,0,0,1,.12,1.74,17,17,0,0,0,0,2.67,16.75,16.75,0,0,0,0,2.65c0,.8-.67.41-1,.54H244.8Z"/><path class="cls-3" d="M212.88,225.1c.34.09.9-.16.85.54V231a4.09,4.09,0,0,0,0,.78c.09.66-.13,1-.82.92a16,16,0,0,0-2.68,0,15.52,15.52,0,0,0-2.64,0c-1.38-.14-1.38-.14-1.32,1v5.32c-.05,1.45-.14,1.14,1.11,1.17a1.08,1.08,0,0,0,.19,0l4.56,0c.48,0,1.08-.16,1.42.06s.06.95.2,1.42v18.62a13.91,13.91,0,0,0,0,1.58c.07.64-.2.77-.78.76-2.05,0-4.1,0-6.16,0-.42,0-.58.12-.55.57,0,.81,0,1.63,0,2.44v4.54h-6.66c-.7.09-.92-.22-.83-.88a6.42,6.42,0,0,0,0-1V257.57l.06-2.52.79,0a21.46,21.46,0,0,0,2.66,0h2.66a5.53,5.53,0,0,1,.71,0c.48.06.66-.1.63-.61-.05-.74,0-1.48,0-2.22v-2.66c0-.24,0-.48,0-.72,0-1.33,0-1.33-1.33-1.25h-5.32c-.46,0-1,0-.85-.68V225.64c0-.7.51-.45.85-.54h13.3Z"/><path class="cls-3" d="M258.64,260.22c0,.6-.05,1.2,0,1.79,0,.42-.15.56-.51.58q-4-.12-8,0a16.75,16.75,0,0,0-2.65,0,17.13,17.13,0,0,0-2.68,0,16.75,16.75,0,0,0-2.65,0c-.15,0-.3,0-.46,0h-10.2c-.88,0-1.76,0-2.64,0a16.75,16.75,0,0,0-2.65,0,17.13,17.13,0,0,0-2.68,0c-.61,0-1.22,0-1.83,0-.38,0-.5-.14-.5-.5,0-.61,0-1.22,0-1.83a17.13,17.13,0,0,0,0-2.68,16.62,16.62,0,0,0,0-2.64,17.13,17.13,0,0,0,0-2.68,16.62,16.62,0,0,0,0-2.64,17.13,17.13,0,0,0,0-2.68,16.62,16.62,0,0,0,0-2.64,17.13,17.13,0,0,0,0-2.68,16.62,16.62,0,0,0,0-2.64,17.13,17.13,0,0,0,0-2.68,16.62,16.62,0,0,0,0-2.64,17,17,0,0,0,0-2.67,16.75,16.75,0,0,0,0-2.65c.14-1.06-.08-2.14.12-3.2H258.1q.57,0,.54.54v34.58Zm-7.72-5.2a.11.11,0,0,0,.15-.12,16.87,16.87,0,0,0,0-2.66,17,17,0,0,0,0-2.67,16.75,16.75,0,0,0,0-2.65,17,17,0,0,0,0-2.67,16.75,16.75,0,0,0,0-2.65,17,17,0,0,0,0-2.67,16.75,16.75,0,0,0,0-2.65c0-1.08,0-2.16.06-3.24,0-.31-.13-.43-.44-.43l-3.24.06a16.75,16.75,0,0,0-2.65,0,15.87,15.87,0,0,0-2.67,0,16.75,16.75,0,0,0-2.65,0,15.87,15.87,0,0,0-2.67,0,16.75,16.75,0,0,0-2.65,0,15.87,15.87,0,0,0-2.67,0,16.75,16.75,0,0,0-2.65,0,.11.11,0,0,0-.12.15v.41a23.87,23.87,0,0,0,0,3.05v2.66a19.68,19.68,0,0,0,0,2.66v2.66a19.68,19.68,0,0,0,0,2.66v2.66a19.68,19.68,0,0,0,0,2.66v2.66c0,.1,0,.14.13.13h2.66a23.6,23.6,0,0,0,2.66,0h2.66a23.6,23.6,0,0,0,2.66,0h2.66a23.6,23.6,0,0,0,2.66,0h2.66a23.6,23.6,0,0,0,2.66,0Z"/><path class="cls-3" d="M258.64,321.4c-.14.38.26,1-.55,1.05a16.75,16.75,0,0,0-2.65,0,17,17,0,0,0-2.67,0,16.57,16.57,0,0,1-1.73-.13l0,0a2,2,0,0,0,0-.93,17,17,0,0,0,0-2.67,16.75,16.75,0,0,0,0-2.65c.13-1.17.13-1.17,1.31-1.18.14,0,.27,0,.4,0h5.32c.37,0,.57.13.52.55a3.56,3.56,0,0,0,0,.65v5.32Z"/><path class="cls-3" d="M258.64,305.44c0,.5-.05,1,0,1.5s-.16.54-.52.52h-6.78c-.09,0-.16,0-.16.11a.87.87,0,0,0,0,.53,17,17,0,0,0,0,2.67,16.75,16.75,0,0,0,0,2.65c0,.15,0,.3,0,.46,0,1,0,1-1,1.06h-13.3c-.57.06-.75-.2-.67-.75a5,5,0,0,0,0-.77v-13.3c0-.08,0-.13-.11-.11h-1.86a19.68,19.68,0,0,0-2.66,0h-2.66a19.68,19.68,0,0,0-2.66,0h-2.66a13.77,13.77,0,0,0-2.13,0c-.09,0-.16,0-.15.13a14.88,14.88,0,0,0,0,2.67,16.75,16.75,0,0,0,0,2.65c-.14.66,0,1.34-.11,2h-7.47a12.26,12.26,0,0,0,0-2c0-1.63,0-3.26,0-4.89,0-.46.14-.62.6-.59s.83,0,1.25,0h5.32c.31.07.33-.14.33-.35,0-.71,0-1.41,0-2.12l.06-5.06c2.54.11,5.08.08,7.62,0s5.33.08,8,0a16.62,16.62,0,0,0,2.64,0c1.25,0,2.51,0,3.76.06.33,0,.41-.14.4-.44,0-.85,0-1.71,0-2.57V278.84c.1-1.28.1-1.28,1.21-1.35h5.32c1.22.06,1,.06,1-.92a1.72,1.72,0,0,0,0-.39,16.87,16.87,0,0,0,0-2.66,17,17,0,0,0,0-2.67c-.07-.69.26-.92.92-.82a4.21,4.21,0,0,0,.79,0h5.32c.71-.06.44.51.54.85v13.3c-.1.36.16.92-.54.93a10.76,10.76,0,0,0-2.66-.08h-2.66c-2,0-1.62-.34-1.65,1.61a1.38,1.38,0,0,0,0,.2,17,17,0,0,0,0,2.67,16.75,16.75,0,0,0,0,2.65,17,17,0,0,0,0,2.67,16.75,16.75,0,0,0,0,2.65,16.45,16.45,0,0,0,0,1.72c.05.64-.17.82-.81.8-2.06,0-4.12,0-6.17,0-.39,0-.56.08-.53.51,0,.77,0,1.54,0,2.32v2.65c0,.3,0,.61,0,.91,0,1.14,0,1.14,1.17,1.06h5.32c1,.06,1,.06,1-.92,0-.35,0-.7,0-1,0-1.26,0-2.52.06-3.78,0-.54-.23-1.22.12-1.6s1-.05,1.47-.12h5.38c.18.07.42,0,.54.18v5.32Z"/><path class="cls-3" d="M183.62,255l.12-.13C183.76,255,183.71,255,183.62,255Z"/><path class="cls-3" d="M228.84,232.67l-.12.15A.11.11,0,0,1,228.84,232.67Z"/><path class="cls-3" d="M250.92,255l.15-.12A.11.11,0,0,1,250.92,255Z"/><path class="cls-3" d="M228.71,254.9l.13.13C228.74,255,228.7,255,228.71,254.9Z"/><path class="cls-3" d="M236.13,300.12,236,300C236.11,300,236.14,300,236.13,300.12Z"/><path class="cls-3" d="M221.39,300l-.15.13C221.23,300,221.3,300,221.39,300Z"/><path class="cls-3" d="M251.32,307.46l-.16.11C251.16,307.46,251.23,307.45,251.32,307.46Z"/><path class="cls-3" d="M161.34,281.5l-.05-2.65c0-.11,0-.22.05-.33,0-1,0-1,1-1h5.32l1.21,0v6.64c.09.69-.22.94-.88.83a1.22,1.22,0,0,0-.33,0h-5.32c-.59,0-1.15,0-1-.84Z"/><path class="cls-3" d="M221.11,307.43l2.41,0h2.66c.68,0,1.36,0,2,0,.27,0,.46,0,.46.38,0,2.32,0,4.63,0,6.95a.38.38,0,0,1-.08.17,17.48,17.48,0,0,0-2.4,0h-2.67c-.55,0-1.1-.06-1.65,0s-.69-.12-.68-.65c0-2,0-4,0-6A7,7,0,0,0,221.11,307.43Z"/><path class="cls-3" d="M212.88,307.41l.8,0,0,.67v5.32a2.29,2.29,0,0,0,0,.58c.11.67-.1,1-.83.94h-5.33c-1.6-.07-1.32-.17-1.3,1.14v5.32c-.06,1-.06,1-1,1a1.87,1.87,0,0,0-.32,0,16.75,16.75,0,0,0-2.65,0,15.75,15.75,0,0,0-2.66,0c-.69.07-.94-.26-.83-.91,0,0,0-.09,0-.13V300.13c.23-.31.58-.09.85-.19h5.32l1.34.06,0,0,0,.14v5.32c0,.24,0,.48,0,.72,0,1.33,0,1.33,1.33,1.25h5.32Z"/><path class="cls-3" d="M206.2,270.86l0-.8,1.34-.05h5.32c.65-.08.93.2.85.85v5.32a2.37,2.37,0,0,0,0,.46c.11.66-.11,1-.82.9h-5.32l-1.34,0,0,0,0-1.34v-5.32Z"/><path class="cls-3" d="M213.73,297.46c0,.62,0,1.24,0,1.85s-.13.68-.66.67c-2.1,0-4.2,0-6.3,0l-.39,0h-.14l0,0,0-2.53v-4.8l0-.13h0a2.05,2.05,0,0,1,.78-.07l3.22-.05a25,25,0,0,0,3.46,0v0l.06,2.41Z"/><path class="cls-3" d="M206.22,300h.14l-.11.13Z"/><path class="cls-3" d="M221.2,292.41c-1,.17-2,0-3,.11a16.75,16.75,0,0,0-2.65,0c-.62-.13-1.26.07-1.87-.12v-5.58c0-.48,0-1,0-1.45,0-.28.1-.39.39-.39l1.45,0h5.32c.33,0,.33.28.33.52,0,.46,0,.91.05,1.36a16.75,16.75,0,0,0,0,2.65,15.87,15.87,0,0,0,0,2.67Z"/><path class="cls-3" d="M169,277.54l-.13.1v-.12h0Z"/><path class="cls-3" d="M183.61,285h-5.32a8.38,8.38,0,0,0-1.12,0c-.66.08-1-.11-.89-.83v-5.32a4.18,4.18,0,0,1,0-.71c.07-.56-.17-.71-.68-.59H169l-.15,0,0-1.33v-5.32c-.08-.67.2-.94.87-.84a2.85,2.85,0,0,0,.65,0h13.29c.31.23.08.58.19.85v5.33c0,.21,0,.43,0,.65-.08.54.13.73.68.68s1.22,0,1.82,0H204.9l1.34,0,0,0,0,1.34v10.64l0,3.07h0l-.15,0a3.66,3.66,0,0,0-1.19,0,17,17,0,0,0-2.67,0,16.75,16.75,0,0,0-2.65,0c-.26-.17-.77.2-.85-.38v-5.32c0-2.25.44-1.82-1.81-1.81H183.61Z"/><path class="cls-3" d="M206.21,292.67l-.12-.15.15,0Z"/><path class="cls-3" d="M176.33,310.77v2.65a4,4,0,0,0,0,.77c.08.54-.11.81-.68.75h-5.32c-.46-.1-1.06.18-1.38-.13s0-.92-.13-1.38v-5.32c0-.53.16-.77.72-.68a4.3,4.3,0,0,0,.8,0h5.32q.77-.07.69.69Z"/><path class="cls-3" d="M176.33,241.6v5.32q.07.78-.69.69h-5.32a3.57,3.57,0,0,0-.8,0c-.56.09-.76-.16-.72-.68V241.6c.1-.47-.18-1.07.13-1.38s.92,0,1.38-.14h5.32c.53,0,.77.17.68.73A4.17,4.17,0,0,0,176.33,241.6Z"/><path class="cls-3" d="M234.16,270a7,7,0,0,0,1.12,0c.66-.08,1,.12.9.83v13.3c.11.72-.24.91-.9.83a8.43,8.43,0,0,0-1.12,0h-5.32c-.3-.23-.08-.58-.19-.85v-5.32a4.63,4.63,0,0,1,0-.65c.08-.55-.13-.73-.68-.69s-1.22,0-1.83,0h-2.66l-.86,0c-.43,0-1,.14-1.29-.05s-.06-.85-.22-1.28c0-1.83,0-3.66,0-5.5,0-.47.1-.68.62-.65s1.15,0,1.72,0h10.64Z"/><path class="cls-3" d="M236.13,244.26V241.6a3.48,3.48,0,0,0,0-.79c-.08-.56.15-.77.68-.72h5.32c.47.1,1.07-.19,1.38.13s0,.91.13,1.38v5.32c.06.56-.2.75-.74.67a5,5,0,0,0-.77,0h-5.32q-.78.09-.69-.69Z"/></g></g></svg>