<svg xmlns="http://www.w3.org/2000/svg" viewBox="0 0 238.11 184.65"><defs><style>.cls-1{fill:#b1bfc6;}</style></defs><g id="Слой_2" data-name="Слой 2"><g id="Слой_1-2" data-name="Слой 1"><rect class="cls-1" y="132.88" width="2.39" height="51.77"/><rect class="cls-1" x="4.78" y="132.88" width="2.39" height="51.77"/><rect class="cls-1" x="28.08" y="132.88" width="2.39" height="51.77"/><rect class="cls-1" x="32.86" y="132.88" width="2.39" height="51.77"/><rect class="cls-1" x="9.56" y="132.88" width="2.39" height="51.77"/><rect class="cls-1" x="18.52" y="132.88" width="7.17" height="51.77"/><rect class="cls-1" x="37.64" y="132.88" width="7.17" height="51.77"/><rect class="cls-1" x="52.58" y="132.88" width="2.39" height="51.77"/><rect class="cls-1" x="57.36" y="132.88" width="2.39" height="51.77"/><rect class="cls-1" x="93.21" y="132.88" width="2.39" height="51.77"/><rect class="cls-1" x="97.99" y="132.88" width="2.39" height="51.77"/><rect class="cls-1" x="62.14" y="132.88" width="7.17" height="51.77"/><rect class="cls-1" x="110.54" y="132.88" width="2.39" height="51.77"/><rect class="cls-1" x="135.34" y="132.88" width="2.39" height="51.77"/><rect class="cls-1" x="115.32" y="132.88" width="7.17" height="51.77"/><rect class="cls-1" x="124.88" y="132.88" width="7.17" height="51.77"/><rect class="cls-1" x="77.3" y="132.88" width="7.17" height="51.77"/><rect class="cls-1" x="144.68" y="132.88" width="2.39" height="51.77"/><rect class="cls-1" x="149.46" y="132.88" width="2.39" height="51.77"/><rect class="cls-1" x="154.24" y="132.88" width="7.17" height="51.77"/><rect class="cls-1" x="182.84" y="132.88" width="2.39" height="51.77"/><rect class="cls-1" x="207.64" y="132.88" width="2.39" height="51.77"/><rect class="cls-1" x="187.62" y="132.88" width="7.17" height="51.77"/><rect class="cls-1" x="197.18" y="132.88" width="7.17" height="51.77"/><rect class="cls-1" x="216.98" y="132.88" width="2.39" height="51.77"/><rect class="cls-1" x="221.76" y="132.88" width="2.39" height="51.77"/><rect class="cls-1" x="235.72" y="132.88" width="2.39" height="51.77"/><rect class="cls-1" x="226.54" y="132.88" width="7.17" height="51.77"/><rect class="cls-1" x="169.4" y="132.88" width="7.17" height="51.77"/><path class="cls-1" d="M87.24,120.79H56.59c-.44,0-.65-.18-.62-.62V80.32c0-.69.06-1.38,0-2.06,0-.48.17-.65.59-.67a19.92,19.92,0,0,0,3.09,0,19.41,19.41,0,0,0,3,0,19.79,19.79,0,0,0,3.08,0,19.41,19.41,0,0,0,3,0,19.79,19.79,0,0,0,3.08,0,19.41,19.41,0,0,0,3,0,19.79,19.79,0,0,0,3.08,0,19.41,19.41,0,0,0,3,0c.33,0,.66,0,1,0,5.36,0,10.71,0,16.07,0,.8,0,1,.23,1,1q0,18.92,0,37.82c0,1.25,0,2.5,0,3.75,0,.42-.19.62-.67.59-.68,0-1.37,0-2.06,0h-9.2ZM64.69,92.58a19.54,19.54,0,0,0,0,3.06,19.67,19.67,0,0,0,0,3.07,19.54,19.54,0,0,0,0,3.06,19.79,19.79,0,0,0,0,3.08,19.41,19.41,0,0,0,0,3.05c0,1.25,0,2.49-.06,3.73,0,.36.13.51.49.5l3.74-.06a19.54,19.54,0,0,0,3.06,0,17.6,17.6,0,0,0,3.08,0,18.27,18.27,0,0,0,3,0,17.6,17.6,0,0,0,3.08,0,18.27,18.27,0,0,0,3.05,0,17.49,17.49,0,0,0,3.07,0,18.51,18.51,0,0,0,3.07,0c.32-.16.16-.45.16-.68,0-2.12,0-4.24,0-6.36,0-6,0-12,0-18.08,0-.6-.19-.72-.74-.69-.78,0-1.58,0-2.37,0h-.15c-2-.08-4-.06-6,0h-.15c-2-.08-4-.06-6,0H75c-2-.08-4-.06-6,0h-.16l-3.87,0c-.13,0-.26,0-.29.18a20.84,20.84,0,0,0,0,3.06A19.67,19.67,0,0,0,64.69,92.58Z"/><path class="cls-1" d="M56,58.86V52.73c.11-.39-.18-1,.63-1h6.13a5.54,5.54,0,0,0,.91,0c.76-.12,1.13.14,1,.94a19.79,19.79,0,0,0,0,3.08,19.54,19.54,0,0,0,0,3.06c-.16.48.2,1.13-.19,1.44s-1,.06-1.55.1l-.23,0H56.59c-.41,0-.65-.11-.59-.6A6.33,6.33,0,0,0,56,58.86Z"/><path class="cls-1" d="M96.44,0c.69,0,1.38.06,2.06,0,.48,0,.65.17.67.59a19.92,19.92,0,0,0,0,3.09,20.7,20.7,0,0,0,0,3.05,19.79,19.79,0,0,0,0,3.08,20.7,20.7,0,0,0,0,3.05,19.79,19.79,0,0,0,0,3.08,20.7,20.7,0,0,0,0,3.05,19.79,19.79,0,0,0,0,3.08,20.7,20.7,0,0,0,0,3.05,19.79,19.79,0,0,0,0,3.08,20.7,20.7,0,0,0,0,3.05,19.79,19.79,0,0,0,0,3.08,20.7,20.7,0,0,0,0,3,19.79,19.79,0,0,0,0,3.08c0,.7,0,1.41,0,2.11,0,.42-.14.58-.57.57-.7,0-1.41,0-2.11.05a17.6,17.6,0,0,0-3.08,0,17.26,17.26,0,0,0-3.05,0,18.75,18.75,0,0,0-3.09,0,18.28,18.28,0,0,0-3,0,4.53,4.53,0,0,0-.53-.05H71.9c-1,0-2,0-3.05.06a17.26,17.26,0,0,0-3,0,17.6,17.6,0,0,0-3.08,0,17.37,17.37,0,0,0-3.06,0,17.6,17.6,0,0,0-3.08,0c-.42,0-.62-.2-.59-.67,0-.69,0-1.38,0-2.07V.62c0-.44.18-.65.62-.62H96.44ZM64.69,9.81a19.79,19.79,0,0,0,0,3.08,19.41,19.41,0,0,0,0,3,19.79,19.79,0,0,0,0,3.08,19.41,19.41,0,0,0,0,3.05,19.79,19.79,0,0,0,0,3.08,19.41,19.41,0,0,0,0,3.05c0,1.94,0,3.88-.06,5.82,0,.34.1.51.48.5l3.74,0h3.07a26.2,26.2,0,0,0,3.07,0h3.06a26.2,26.2,0,0,0,3.07,0h3.06a26.2,26.2,0,0,0,3.07,0h3.06q.16,0,.15-.15V31.28a26.2,26.2,0,0,0,0-3.07V25.15a26.2,26.2,0,0,0,0-3.07V19a26.2,26.2,0,0,0,0-3.07V12.89c0-1.25,0-2.5,0-3.75,0-.38-.16-.48-.5-.48l-5.82.06a19.41,19.41,0,0,0-3,0,19.79,19.79,0,0,0-3.08,0,19.41,19.41,0,0,0-3.05,0,19.79,19.79,0,0,0-3.08,0,19.41,19.41,0,0,0-3,0,19.79,19.79,0,0,0-3.08,0C64.58,8.6,64.57,8.61,64.69,9.81Z"/><path class="cls-1" d="M121,120.79H117.9a6.29,6.29,0,0,0-1,0c-.48,0-.61-.19-.59-.6V114a1.66,1.66,0,0,0,0-.22c0-.51-.15-1.11.07-1.49s1-.07,1.47-.26a19.54,19.54,0,0,0,3.06,0,17.6,17.6,0,0,0,3.08,0,18.27,18.27,0,0,0,3,0,17.6,17.6,0,0,0,3.08,0,18.27,18.27,0,0,0,3.05,0,17.6,17.6,0,0,0,3.08,0,18.15,18.15,0,0,0,3,0c.61,0,1.21.05,1.81.05,1.14,0,1.14,0,1.06-1.15V103.6a29.89,29.89,0,0,1,3.28-.15h3.07c.28,0,.55,0,.83,0,1.42,0,1.42,0,1.5,1.35v15.33c0,.41-.12.63-.61.6s-1.15,0-1.72,0H121Z"/><path class="cls-1" d="M160.81,120.79a4.83,4.83,0,0,0-.76,0c-.48.07-.63-.16-.63-.59V114c0-.15,0-.3,0-.46,0-1.37,0-1.37,1.35-1.51a19.54,19.54,0,0,0,3.06,0,17.49,17.49,0,0,0,3.07,0,2.19,2.19,0,0,0,1.08,0l0,0c.22.65,0,1.34.14,2a19.79,19.79,0,0,0,0,3.08,19.41,19.41,0,0,0,0,3c0,.93-.77.47-1.2.63h-6.13Z"/><path class="cls-1" d="M124,0c.39.11,1-.18,1,.63V6.76a5.54,5.54,0,0,0,0,.91c.11.75-.14,1.13-.94,1.05a19.79,19.79,0,0,0-3.08,0,19.41,19.41,0,0,0-3,0c-1.59-.16-1.59-.16-1.51,1.1V16c-.06,1.67-.16,1.31,1.28,1.35a1.46,1.46,0,0,0,.22,0l5.25,0c.56,0,1.25-.18,1.64.07s.07,1.09.23,1.64V40.47a16,16,0,0,0,0,1.83c.07.73-.23.88-.9.87-2.36,0-4.73,0-7.09,0-.49,0-.67.13-.65.64.06.94,0,1.88.05,2.83v3.06l0,2.16H108.7c-.8.11-1.06-.26-1-1a8.58,8.58,0,0,0,0-1.13V37.41l.07-2.9.91,0a26.2,26.2,0,0,0,3.07,0h3.06a7.56,7.56,0,0,1,.83,0c.55.08.76-.11.72-.69-.06-.86,0-1.71,0-2.57V28.21c0-.27,0-.55,0-.83,0-1.53,0-1.53-1.53-1.44H108.7c-.53,0-1.13.06-1-.79V.63c0-.81.59-.52,1-.63H124Z"/><path class="cls-1" d="M176.76,40.47c0,.69-.06,1.38,0,2.07,0,.47-.17.64-.59.67q-4.6-.15-9.21,0a17.26,17.26,0,0,0-3.05,0,18.75,18.75,0,0,0-3.09,0,18.27,18.27,0,0,0-3.05,0,4.75,4.75,0,0,0-.53-.05H145.47c-1,0-2,0-3.05.06a17.37,17.37,0,0,0-3.06,0,18.63,18.63,0,0,0-3.08,0c-.7,0-1.41-.05-2.11,0-.43,0-.58-.15-.57-.57,0-.7,0-1.41,0-2.11a19.79,19.79,0,0,0,0-3.08,19.41,19.41,0,0,0,0-3,19.79,19.79,0,0,0,0-3.08,19.41,19.41,0,0,0,0-3.05,19.79,19.79,0,0,0,0-3.08,19.41,19.41,0,0,0,0-3.05,19.79,19.79,0,0,0,0-3.08,19.41,19.41,0,0,0,0-3.05,19.79,19.79,0,0,0,0-3.08,19.41,19.41,0,0,0,0-3.05,19.79,19.79,0,0,0,0-3.08,19.41,19.41,0,0,0,0-3c.16-1.22-.09-2.46.14-3.68l2.59,0h39.85c.44,0,.65.18.62.62V40.47Zm-8.9-6c.11,0,.18,0,.18-.14a19.54,19.54,0,0,0,0-3.06,19.79,19.79,0,0,0,0-3.08,19.41,19.41,0,0,0,0-3.05,19.79,19.79,0,0,0,0-3.08A19.41,19.41,0,0,0,168,19a19.79,19.79,0,0,0,0-3.08,19.41,19.41,0,0,0,0-3l.06-3.74c0-.36-.14-.5-.5-.49-1.24,0-2.49,0-3.73.06a19.54,19.54,0,0,0-3.06,0,19.67,19.67,0,0,0-3.07,0,19.54,19.54,0,0,0-3.06,0,19.67,19.67,0,0,0-3.07,0,19.54,19.54,0,0,0-3.06,0,19.67,19.67,0,0,0-3.07,0,19.54,19.54,0,0,0-3.06,0c-.12,0-.15.07-.14.18v.47a29.53,29.53,0,0,0,0,3.52V16a22.47,22.47,0,0,0,0,3.07v3.06a22.47,22.47,0,0,0,0,3.07v3.06a22.47,22.47,0,0,0,0,3.07v3.06q0,.16.15.15h3.06a26.2,26.2,0,0,0,3.07,0h3.06a26.2,26.2,0,0,0,3.07,0h3.07a26,26,0,0,0,3.06,0h3.07a26,26,0,0,0,3.06,0Z"/><path class="cls-1" d="M176.76,111c-.16.43.3,1.18-.63,1.2a19.41,19.41,0,0,0-3,0,18.63,18.63,0,0,0-3.08,0,16.66,16.66,0,0,1-2-.14l0,0a2.15,2.15,0,0,0,0-1.07,19.79,19.79,0,0,0,0-3.08,19.41,19.41,0,0,0,0-3.05c.14-1.34.14-1.34,1.51-1.36a3.57,3.57,0,0,0,.46,0h6.13c.43,0,.66.14.59.63a4.75,4.75,0,0,0,0,.75V111Z"/><path class="cls-1" d="M176.76,92.58c0,.58-.06,1.15,0,1.72s-.19.62-.6.61h-7.82c-.1,0-.18,0-.18.13a1,1,0,0,0,0,.6,18.63,18.63,0,0,0,0,3.08,19.41,19.41,0,0,0,0,3c0,.18,0,.35,0,.53,0,1.14,0,1.14-1.15,1.22H151.62c-.66.08-.87-.23-.78-.86a5.18,5.18,0,0,0,0-.88V86.45c0-.09,0-.15-.12-.13h-2.15a22.47,22.47,0,0,0-3.07,0h-3.06a22.47,22.47,0,0,0-3.07,0h-3.06a15.42,15.42,0,0,0-2.45,0c-.11,0-.19,0-.18.15a19.67,19.67,0,0,0,0,3.07,19.54,19.54,0,0,0,0,3.06c-.15.76.07,1.54-.13,2.3h-8.6a14.85,14.85,0,0,0,0-2.31c0-1.88,0-3.76,0-5.64,0-.53.15-.72.68-.68a14,14,0,0,0,1.45,0h6.13c.35.08.38-.16.37-.4,0-.82,0-1.63,0-2.45l.07-5.82c2.93.12,5.86.08,8.78,0q4.6.14,9.21,0a19.41,19.41,0,0,0,3,0c1.45,0,2.89,0,4.33.06.38,0,.47-.16.46-.5,0-1,0-2,0-3V61.93c.11-1.48.11-1.48,1.39-1.56h6.13c1.41.08,1.11.07,1.15-1.06a3.44,3.44,0,0,0-.05-.45,19.54,19.54,0,0,0,0-3.06,19.79,19.79,0,0,0,0-3.08c-.08-.8.3-1.06,1.06-.94a4.54,4.54,0,0,0,.9,0h6.13c.83-.06.52.59.63,1V68.06c-.11.41.19,1.06-.62,1.07a12.55,12.55,0,0,0-3.06-.09H170c-2.33,0-1.85-.39-1.9,1.85a1.85,1.85,0,0,0,0,.23,19.79,19.79,0,0,0,0,3.08,19.41,19.41,0,0,0,0,3,19.79,19.79,0,0,0,0,3.08,19.41,19.41,0,0,0,0,3,18.69,18.69,0,0,0,0,2c.06.75-.2.94-.94.93-2.37-.05-4.74,0-7.11,0-.44,0-.64.09-.61.59.05.89,0,1.78,0,2.67v3.06c0,.35,0,.7,0,1,0,1.3,0,1.3,1.35,1.22h6.13c1.15.07,1.15.07,1.15-1.06,0-.4,0-.8-.05-1.21,0-1.45,0-2.9.07-4.34,0-.63-.27-1.41.13-1.84s1.12-.07,1.7-.15h6.2c.21.08.48,0,.62.21v6.13Z"/><path class="cls-1" d="M90.31,34.49l.15-.15Q90.48,34.51,90.31,34.49Z"/><path class="cls-1" d="M142.42,8.72l-.14.18C142.27,8.79,142.3,8.72,142.42,8.72Z"/><path class="cls-1" d="M167.86,34.48l.18-.14C168,34.46,168,34.5,167.86,34.48Z"/><path class="cls-1" d="M142.27,34.34l.15.15Q142.26,34.5,142.27,34.34Z"/><path class="cls-1" d="M150.82,86.45l-.12-.13C150.8,86.3,150.83,86.36,150.82,86.45Z"/><path class="cls-1" d="M133.84,86.3l-.18.15C133.65,86.32,133.73,86.29,133.84,86.3Z"/><path class="cls-1" d="M168.32,94.91l-.18.13C168.14,94.91,168.22,94.89,168.32,94.91Z"/><path class="cls-1" d="M64.64,65l0-3c0-.13,0-.25,0-.38,0-1.12,0-1.12,1.15-1.19h6.13l1.39,0v7.66c.1.79-.26,1.08-1,1a1.54,1.54,0,0,0-.37,0H65.78c-.68,0-1.32,0-1.19-1Z"/><path class="cls-1" d="M133.52,94.87l2.77,0h3.06l2.36,0c.32,0,.54,0,.53.44l0,8c0,.07-.06.13-.09.2a21.18,21.18,0,0,0-2.76,0h-3.08c-.63,0-1.27-.06-1.91,0s-.79-.14-.78-.75c0-2.32,0-4.65,0-7C133.6,95.48,133.54,95.17,133.52,94.87Z"/><path class="cls-1" d="M124,94.85l.93,0,.05.77v6.13a3.91,3.91,0,0,0,0,.68c.13.76-.11,1.18-1,1.07h-6.14c-1.85-.07-1.52-.19-1.49,1.32V111c-.07,1.12-.07,1.12-1.2,1.16-.13,0-.25,0-.37,0a18.39,18.39,0,0,0-3.06,0,19.67,19.67,0,0,0-3.07,0c-.79.08-1.08-.29-1-1a.8.8,0,0,0,0-.15V86.45c.27-.34.67-.09,1-.21h6.13l1.54.07,0,0,0,.15v6.14c0,.28,0,.55,0,.83,0,1.54,0,1.54,1.53,1.44H124Z"/><path class="cls-1" d="M116.33,52.74l0-.93,1.54-.06H124c.75-.09,1.08.23,1,1v6.13a2.39,2.39,0,0,0,0,.53c.12.76-.13,1.16-1,1H117.9l-1.55,0,0,0,0-1.54V52.74Z"/><path class="cls-1" d="M125,83.38c0,.71-.06,1.43,0,2.14s-.16.77-.77.77c-2.41,0-4.83,0-7.25,0-.15,0-.3,0-.45,0h-.17l0,0,0-2.92V77.87l0-.16,0,0a2.1,2.1,0,0,1,.9-.08c1.23,0,2.47,0,3.71-.06a28,28,0,0,0,4,0l0,0,.07,2.78Z"/><path class="cls-1" d="M116.35,86.29h.17l-.13.14Z"/><path class="cls-1" d="M133.62,77.57c-1.15.19-2.32,0-3.47.12a19.41,19.41,0,0,0-3.05,0c-.71-.15-1.45.08-2.16-.14l0,0,0-3.38V71.12c0-.55,0-1.11,0-1.67,0-.32.12-.45.45-.45.56,0,1.12,0,1.67,0h6.13c.39,0,.38.32.39.6,0,.52,0,1,0,1.56a19.41,19.41,0,0,0,0,3.05,19.92,19.92,0,0,0,0,3.09Z"/><path class="cls-1" d="M73.45,60.42l-.14.13V60.4h.14Z"/><path class="cls-1" d="M90.31,69H84.18a9.4,9.4,0,0,0-1.3,0c-.75.09-1.15-.13-1-1V61.93a7.81,7.81,0,0,1,0-.83c.08-.63-.2-.81-.78-.67H73.29l-.05-1.54V52.74c-.1-.77.23-1.08,1-1a3.8,3.8,0,0,0,.75,0H90.31c.35.27.09.67.22,1v6.13c0,.25,0,.5,0,.75-.1.62.15.84.78.79s1.4,0,2.1,0h21.47l1.54,0,0,0,.05,1.54V74.19l0,3.54,0,0-.17,0a4.2,4.2,0,0,0-1.37,0,19.79,19.79,0,0,0-3.08,0,19.41,19.41,0,0,0-3.05,0c-.31-.2-.89.23-1-.44V71.12c0-2.59.51-2.09-2.08-2.08H90.31Z"/><path class="cls-1" d="M116.34,77.87l-.13-.18.17,0Z"/><path class="cls-1" d="M81.91,98.71v3.07a5.18,5.18,0,0,0,0,.88c.09.63-.13.93-.78.86H75c-.54-.11-1.22.21-1.59-.15s0-1.05-.15-1.59V95.65c0-.61.18-.88.83-.78a4.73,4.73,0,0,0,.92,0h6.13c.59-.06.86.2.79.79Z"/><path class="cls-1" d="M81.91,19v6.13c.07.59-.2.86-.79.79H75a5.68,5.68,0,0,0-.92,0c-.65.11-.88-.17-.83-.78V19c.11-.54-.21-1.23.15-1.59s1,0,1.59-.15h6.13c.61-.05.89.19.78.83A4.73,4.73,0,0,0,81.91,19Z"/><path class="cls-1" d="M148.55,51.75a9.41,9.41,0,0,0,1.3,0c.76-.1,1.15.13,1,.95V68.06c.12.83-.27,1-1,1a9.43,9.43,0,0,0-1.3,0h-6.13c-.35-.27-.09-.67-.21-1V61.93c0-.25,0-.51,0-.75.1-.63-.15-.85-.78-.79s-1.4,0-2.1,0h-3.07l-1,0c-.5,0-1.1.15-1.49-.06s-.07-1-.25-1.47c0-2.12.05-4.23,0-6.34,0-.55.11-.79.71-.76s1.32,0,2,0h12.26Z"/><path class="cls-1" d="M150.82,22.08V19a4.73,4.73,0,0,0,0-.92c-.1-.64.17-.88.78-.83h6.13c.54.12,1.23-.21,1.59.15s0,1,.15,1.59v6.13c.07.65-.23.87-.86.78a5.32,5.32,0,0,0-.89,0h-6.13c-.59.07-.86-.2-.79-.79Z"/></g></g></svg>