<svg xmlns="http://www.w3.org/2000/svg" viewBox="0 0 127.49 88.04"><defs><style>.cls-1{fill:#6ab42e;}.cls-2,.cls-4{fill:#fff;}.cls-2{stroke:#4e4d4d;}.cls-3{fill:#676767;}.cls-4{font-size:7.02px;font-family:OpenSans-CondensedLight, Open Sans;font-weight:300;}</style></defs><g id="Слой_2" data-name="Слой 2"><g id="Слой_1-2" data-name="Слой 1"><path class="cls-1" d="M49.42,56.79h70.92c0,.54.06,1,.06,1.5q0,9.29,0,18.57c0,3.1-1,4.11-4.13,4.11H53.39c-2.91,0-4-1.07-4-4V56.79ZM75,63H58.36c-1.63,0-2.71.91-2.72,2.23s1.07,2.37,2.74,2.38c2.58,0,5.17,0,7.75,0,8.33,0,16.67,0,25,0a3.71,3.71,0,0,0,2.42-.93,2.31,2.31,0,0,0,.28-2.22A3.34,3.34,0,0,0,91.56,63C86.05,62.92,80.54,63,75,63Z"/><path class="cls-1" d="M85.58,62.13c8.51,0,17-.08,25.51.09a5.21,5.21,0,0,1,3.53,2,3.23,3.23,0,0,1-.43,3.22,5.87,5.87,0,0,1-3.75,1.36c-12.87.1-25.74.06-38.61.06-4,0-8,0-12,0-2.58,0-4.25-1.42-4.23-3.48,0-1.91,1.69-3.24,4.2-3.24Q72.71,62.11,85.58,62.13Z"/><path class="cls-2" d="M37.43,57.53c0,3.78,0,7.37,0,11,0,1.31.4,2.94-.22,3.84s-2.3,1.08-3.52,1.54c-2.42.9-4.84,1.8-7.27,2.64a9.62,9.62,0,0,1-12.64-6Q8.34,55.66,2.93,40.76c-.59-1.64-1.2-3.29-1.78-4.94a9.6,9.6,0,0,1,5.9-12.67q21.6-7.89,43.21-15.74C56,5.33,61.69,3.24,67.41,1.19c5.51-2,10.76.4,12.8,5.86,2.25,6,4.4,12.06,6.7,18.37H85.09c-10.78,0-21.55,0-32.33,0a14.85,14.85,0,0,0-14.84,11.5,18.92,18.92,0,0,0-.48,4c-.06,3.41,0,6.82,0,10.23a1.37,1.37,0,0,1-1.1,1.56c-4.18,1.47-8.33,3-12.48,4.54-1.85.68-2.55,1.82-2,3.27s1.8,1.92,3.63,1.26c3.39-1.22,6.77-2.46,10.15-3.69Zm-17-8.85a3.55,3.55,0,0,0,.77-.07c2.79-1,5.63-1.91,8.34-3.09A3.58,3.58,0,0,0,31.34,41c-.54-1.71-1.14-3.42-1.83-5.08a3.76,3.76,0,0,0-4.79-2.26c-2.5.81-5,1.71-7.41,2.68A3.79,3.79,0,0,0,15,41.15c.55,1.71,1.18,3.4,1.85,5.07A3.73,3.73,0,0,0,20.47,48.68Z"/><path class="cls-1" d="M20.47,48.68a3.73,3.73,0,0,1-3.59-2.46c-.67-1.67-1.3-3.36-1.85-5.07a3.79,3.79,0,0,1,2.28-4.79c2.44-1,4.91-1.87,7.41-2.68a3.76,3.76,0,0,1,4.79,2.26c.69,1.66,1.29,3.37,1.83,5.08a3.58,3.58,0,0,1-1.76,4.5C26.87,46.7,24,47.6,21.24,48.61A3.55,3.55,0,0,1,20.47,48.68Z"/><path class="cls-2" d="M85,87.53H53.1c-6.23,0-10.3-4.15-10.29-10.39,0-12,0-24,0-36,0-4.91,2.47-8.55,6.72-9.88a11.2,11.2,0,0,1,3.15-.49q32.18,0,64.35,0a9.55,9.55,0,0,1,9.93,10q0,18.44,0,36.86a9.55,9.55,0,0,1-10,9.92Q101,87.55,85,87.53ZM49.42,56.79V77c0,2.91,1.06,4,4,4h62.88c3.12,0,4.13-1,4.13-4.11q0-9.28,0-18.57c0-.48,0-1-.06-1.5Zm0-12h71c0-1.21,0-2.37,0-3.53,0-2.85-1-3.86-3.9-3.86H53c-2.19,0-3.48,1.05-3.59,3C49.37,41.78,49.43,43.2,49.43,44.79Z"/><path class="cls-1" d="M49.43,44.79c0-1.59-.06-3,0-4.41.11-1.93,1.4-3,3.59-3h63.47c2.85,0,3.87,1,3.9,3.86,0,1.16,0,2.32,0,3.53Z"/><rect class="cls-3" x="48.46" y="45.69" width="72.73" height="10.25"/><text class="cls-4" transform="translate(61.07 68.31)">0000 0000 0000 0000</text></g></g></svg>