<svg xmlns="http://www.w3.org/2000/svg" viewBox="0 0 122.41 82.53"><defs><style>.cls-1,.cls-5{fill:#fff;}.cls-1,.cls-2{stroke:#4e4d4d;}.cls-2{fill:#4e4d4d;stroke-width:4px;}.cls-3{fill:#6ab42e;}.cls-4{fill:#676767;}.cls-5{font-size:10.21px;font-family:OpenSans-CondensedLight, Open Sans;font-weight:300;}</style></defs><g id="Слой_2" data-name="Слой 2"><g id="Слой_1-2" data-name="Слой 1"><path class="cls-1" d="M9.61,37.83H112.74c0,.78.09,1.47.09,2.17q0,13.5,0,27c0,4.51-1.47,6-6,6Q61.1,73,15.38,73c-4.23,0-5.76-1.55-5.76-5.77q0-13.5,0-27Zm37.25,9q-12.12,0-24.25,0c-2.37,0-3.93,1.32-3.95,3.23s1.55,3.45,4,3.47c3.75,0,7.51,0,11.27,0,12.12,0,24.24,0,36.36-.06a5.39,5.39,0,0,0,3.53-1.35,3.37,3.37,0,0,0,.4-3.22,4.8,4.8,0,0,0-3.32-2C62.88,46.73,54.87,46.81,46.86,46.81Z"/><path class="cls-2" d="M62.2,45.59c12.36,0,24.73-.11,37.09.13a7.51,7.51,0,0,1,5.12,2.92c.74,1,.36,3.73-.62,4.69a8.54,8.54,0,0,1-5.44,2c-18.72.14-37.43.09-56.14.09-5.81,0-11.61,0-17.41,0-3.75,0-6.18-2.07-6.14-5.06,0-2.79,2.45-4.71,6.11-4.72Q43.48,45.57,62.2,45.59Z"/><path class="cls-3" d="M61.32,82.53H15c-9.06,0-15-6-15-15.11C0,50,0,32.54,0,15.1,0,8,3.61,2.68,9.78.74A15.81,15.81,0,0,1,14.37,0Q61.16,0,107.94,0c8.46,0,14.42,6,14.44,14.49q.06,26.8,0,53.6c0,8.46-6,14.41-14.5,14.42Q84.61,82.57,61.32,82.53ZM9.61,37.83v2.35q0,13.5,0,27c0,4.22,1.53,5.77,5.76,5.77q45.72,0,91.44,0c4.54,0,6-1.46,6-6q0-13.52,0-27c0-.7-.06-1.39-.09-2.17Zm0-17.46H112.84c0-1.76,0-3.45,0-5.13,0-4.14-1.51-5.61-5.66-5.61q-19,0-38.07,0-27.12,0-54.23,0c-3.18,0-5.06,1.52-5.22,4.33C9.53,16,9.63,18.06,9.63,20.37Z"/><path class="cls-1" d="M9.63,20.37c0-2.31-.1-4.37,0-6.41.16-2.81,2-4.33,5.22-4.33q27.12,0,54.23,0,19,0,38.07,0c4.15,0,5.63,1.47,5.66,5.61,0,1.68,0,3.37,0,5.13Z"/><rect class="cls-4" x="8.22" y="21.68" width="105.76" height="14.9"/><text class="cls-5" transform="translate(26.56 54.58)">0000 0000 0000 0000</text></g></g></svg>