<?xml version="1.0"?><svg fill="#000000" xmlns="http://www.w3.org/2000/svg" viewBox="0 0 64 64" width="64px" height="64px">    <path d="M 33 5.0332031 C 32.0845 5.0332031 31.169906 5.3709219 30.503906 6.0449219 L 9.3984375 27.369141 C 8.4964375 28.281141 8 29.49225 8 30.78125 L 8 53.447266 C 8 55.406266 9.5813906 57 11.525391 57 L 54.472656 57 C 56.417656 57 58 55.406266 58 53.447266 L 58 30.78125 C 58 29.49225 57.503562 28.280141 56.601562 27.369141 L 35.496094 6.0449219 C 34.830094 5.3709219 33.9155 5.0332031 33 5.0332031 z M 33 7 C 33.405 7 33.786219 7.1601719 34.074219 7.4511719 L 38.621094 12.044922 L 30.375 20.291016 C 29.984 20.682016 29.984 21.314078 30.375 21.705078 C 30.57 21.900078 30.826031 21.998047 31.082031 21.998047 C 31.338031 21.998047 31.594062 21.900078 31.789062 21.705078 L 33.167969 20.326172 L 46 33.154297 L 46 45 L 20 45 L 20 33.494141 L 28.703125 24.789062 C 29.094125 24.398063 29.094125 23.767953 28.703125 23.376953 C 28.312125 22.985953 27.680062 22.985953 27.289062 23.376953 L 10 40.666016 L 10 30.78125 C 10 30.03425 10.298313 29.302391 10.820312 28.775391 L 31.925781 7.4511719 C 32.213781 7.1601719 32.595 7 33 7 z M 40.027344 13.466797 L 55.179688 28.777344 C 55.701687 29.304344 56 30.03425 56 30.78125 L 56 53.447266 C 56 54.304266 55.315609 55 54.474609 55 L 48 55 L 48 32.740234 C 48 32.474234 47.895031 32.220203 47.707031 32.033203 L 34.580078 18.912109 L 40.027344 13.466797 z M 18 35.494141 L 18 55 L 11.525391 55 C 10.684391 55 10 54.304266 10 53.447266 L 10 43.494141 L 18 35.494141 z M 23 39 C 22.447 39 22 39.448 22 40 L 22 42 C 22 42.552 22.447 43 23 43 C 23.553 43 24 42.552 24 42 L 24 40 C 24 39.448 23.553 39 23 39 z M 28 39 C 27.447 39 27 39.448 27 40 L 27 42 C 27 42.552 27.447 43 28 43 C 28.553 43 29 42.552 29 42 L 29 40 C 29 39.448 28.553 39 28 39 z M 33 39 C 32.447 39 32 39.448 32 40 L 32 42 C 32 42.552 32.447 43 33 43 C 33.553 43 34 42.552 34 42 L 34 40 C 34 39.448 33.553 39 33 39 z M 38 39 C 37.447 39 37 39.448 37 40 L 37 42 C 37 42.552 37.447 43 38 43 C 38.553 43 39 42.552 39 42 L 39 40 C 39 39.448 38.553 39 38 39 z M 43 39 C 42.447 39 42 39.448 42 40 L 42 42 C 42 42.552 42.447 43 43 43 C 43.553 43 44 42.552 44 42 L 44 40 C 44 39.448 43.553 39 43 39 z M 20 47 L 46 47 L 46 55 L 20 55 L 20 47 z"/></svg>